<svg xmlns="http://www.w3.org/2000/svg" xmlns:xlink="http://www.w3.org/1999/xlink" xmlns:fi="http://pattern.flaticon.com/" x="0" y="0" width="700" height="350" viewBox="0 0 700 350"><rect x="0px" y="0px" width="100%" height="100%" opacity="0.65" fill="#20232e"/><defs><g transform="matrix(2.8778419494628906 0 0 2.8778419494628906 68.95452880859375 64.7865663029628)"><path d="M12.497,21.032l-1.591-2.443l0.77-3.132l-1.513-2.114l1.265-4.083l-1.764,0.752C4.628,12.16-0.531,16.266,0.044,20.2    c0.576,3.936,6.695,6.389,12.135,7.006l1.822,0.207l-2.345-3.77L12.497,21.032z M10.509,25.158    c-4.24-0.815-8.348-2.739-8.71-5.215c-0.36-2.458,2.974-5.452,6.767-7.446l-0.36,1.163l1.552,2.165l-0.76,3.088l1.552,2.381    l-0.836,2.588L10.509,25.158z" fill="#fcfad0"/><path d="M25.632,9.201c0.488,0,0.884-0.395,0.884-0.882c0-0.487-0.396-0.883-0.884-0.883c0,0,0,0-0.001,0    c0.039,0.069,0.064,0.144,0.064,0.228c0,0.271-0.219,0.49-0.489,0.49c-0.156,0-0.29-0.079-0.38-0.193    c-0.049,0.109-0.077,0.23-0.077,0.358C24.75,8.807,25.145,9.201,25.632,9.201z" fill="#fcfad0"/><path d="M32,11.275c0,0-2.641-1.508-2.627-1.558C29.445,9.465,32,8.034,32,8.034l-2.876-0.292    c-0.832-2.592-3.258-4.468-6.125-4.468c-3.287,0-5.993,2.467-6.381,5.649l-0.002,0.002c-0.014,0.023-0.043,3.73-0.06,5.987    l-2.57-1.312l-0.33,0.97c-0.528,1.553-0.851,2.997-0.934,4.175c-0.359,5.131,3.522,9.598,8.655,9.957    c5.131,0.359,9.598-3.522,9.958-8.654c0.082-1.178-0.038-2.651-0.344-4.265l-0.206-1.087l-1.975,0.851    c0.396-1.231,0.535-2.582,0.545-3.973C29.389,11.478,32,11.275,32,11.275z M25.512,6.552c0.975,0,1.766,0.792,1.766,1.767    c0,0.976-0.791,1.766-1.766,1.766c-0.976,0-1.766-0.791-1.766-1.766S24.536,6.552,25.512,6.552z M29.564,19.925    c-0.291,4.154-3.91,7.299-8.064,7.008c-4.156-0.291-7.3-3.908-7.009-8.063c0.054-0.771,0.24-1.723,0.535-2.747l2.189,1.118    l2.371-1.039l2.568,1.375l2.785-1.018l2.729,1.413l1.759-0.758C29.568,18.235,29.616,19.175,29.564,19.925z" fill="#fcfad0"/></g><g transform="matrix(1.9236317873001099 0 0 1.9236317873001099 188 316.0000015409953)" id="L1_9"><path d="M21.452,13.136c0.983,0.204,2.028,0.182,3.062-0.119c3.357-0.98,5.663-3.562,4.709-6.92    c0.004-0.098,0.004-0.19,0.004-0.275c-0.002-0.158,1.129-2.212,1.129-2.212l-2.039,0.043c-0.914-1.354-2.629-2.028-4.282-1.546    c-1.894,0.553-3.04,2.43-2.728,4.33v0.002c-0.937,0.132-2.188-1.026-3.767-3.224c-1.258,2.852-0.399,5.354,0.458,6.137    c-1.188,0.493-3.757,0.464-4.95,0.204C16.016,13.043,18.781,13.331,21.452,13.136z M26.037,3.575    c0.562-0.165,1.15,0.158,1.314,0.72c0.164,0.562-0.16,1.151-0.721,1.315c-0.562,0.165-1.15-0.159-1.314-0.721    C25.15,4.326,25.475,3.738,26.037,3.575z" fill="#fffae4"/><path d="M26.552,5.08c0.281-0.083,0.442-0.376,0.361-0.657c-0.083-0.281-0.377-0.442-0.658-0.36l0,0    c0.034,0.034,0.062,0.073,0.075,0.121c0.045,0.156-0.044,0.318-0.2,0.365c-0.089,0.025-0.18,0.003-0.25-0.048    c-0.01,0.071-0.006,0.146,0.017,0.22C25.977,5,26.271,5.162,26.552,5.08z" fill="#fffae4"/><path d="M16.174,17.414c0.003-0.097,0.004-0.189,0.003-0.274c-0.001-0.158,1.13-2.212,1.13-2.212l-2.039,0.043    c-0.915-1.354-2.63-2.028-4.283-1.546c-1.894,0.553-3.04,2.43-2.728,4.329v0.003c-0.936,0.132-2.187-1.026-3.766-3.225    c-1.258,2.853-0.4,5.355,0.458,6.137C3.762,21.163,1.193,21.134,0,20.873c2.966,3.488,5.732,3.776,8.403,3.58    c0.984,0.204,2.029,0.183,3.062-0.119C14.822,23.354,17.128,20.773,16.174,17.414z M13.582,16.928    c-0.563,0.165-1.151-0.159-1.315-0.722c-0.165-0.562,0.158-1.15,0.721-1.313c0.562-0.165,1.15,0.158,1.314,0.72    C14.466,16.175,14.143,16.764,13.582,16.928z" fill="#fffae4"/><path d="M13.206,15.38L13.206,15.38c0.033,0.033,0.061,0.072,0.075,0.12c0.045,0.156-0.044,0.319-0.2,0.365    c-0.089,0.026-0.18,0.003-0.25-0.047c-0.01,0.071-0.006,0.146,0.016,0.219c0.082,0.281,0.376,0.442,0.657,0.36    c0.281-0.083,0.442-0.376,0.361-0.658C13.781,15.459,13.486,15.298,13.206,15.38z" fill="#fffae4"/><path d="M30.062,21.792c-0.002-0.157,1.129-2.212,1.129-2.212l-2.037,0.043c-0.916-1.354-2.631-2.027-4.283-1.546    c-1.895,0.554-3.04,2.431-2.729,4.33v0.002c-0.936,0.132-2.187-1.025-3.766-3.224c-1.258,2.852-0.4,5.354,0.458,6.137    c-1.188,0.493-3.757,0.464-4.95,0.204c2.967,3.488,5.732,3.776,8.403,3.58c0.983,0.204,2.028,0.182,3.062-0.119    c3.357-0.979,5.662-3.561,4.709-6.92C30.062,21.97,30.062,21.876,30.062,21.792z M27.466,21.58    c-0.563,0.165-1.151-0.159-1.315-0.721s0.158-1.151,0.722-1.314c0.562-0.164,1.149,0.158,1.313,0.721    C28.35,20.827,28.027,21.417,27.466,21.58z" fill="#fffae4"/><path d="M27.09,20.033L27.09,20.033c0.033,0.034,0.061,0.073,0.075,0.121c0.045,0.156-0.044,0.319-0.2,0.365    c-0.089,0.025-0.18,0.003-0.25-0.047c-0.01,0.07-0.006,0.146,0.016,0.219c0.082,0.281,0.377,0.442,0.658,0.36    c0.28-0.083,0.441-0.376,0.36-0.658C27.665,20.113,27.371,19.951,27.09,20.033z" fill="#fffae4"/></g><g transform="matrix(4.32054328918457 0 0 4.32054328918457 196.8684959411621 71.86485181237936)" id="L1_10"><path d="M12.672,13.481c0.244,0,0.441-0.196,0.441-0.44c0-0.243-0.197-0.44-0.441-0.44l0,0c0.019,0.036,0.032,0.073,0.032,0.114    c0,0.136-0.11,0.244-0.244,0.244c-0.079,0-0.146-0.04-0.19-0.097c-0.024,0.055-0.039,0.114-0.039,0.179    C12.231,13.284,12.429,13.481,12.672,13.481z" fill="#fcfad0"/><path d="M23.729,20.91l-0.44-0.752c0.094,0.004,0.188,0.014,0.278,0.014c0.896,0,1.735-0.228,2.477-0.619    c2.182-0.467,4.402-2.164,5.96-5.644c-0.896,0.487-2.938,1.109-4.002,0.992c0.501-0.824,0.604-3.024-1.065-5.01    c-0.75,2.124-1.479,3.34-2.258,3.453c0,0,0-0.001-0.001-0.001c-0.192-1.591-1.546-2.823-3.188-2.823    c-1.434,0-2.646,0.938-3.062,2.231l-1.499,0.044l1.359,1.159l-1.39,0.979c0,0,1.375,0.054,1.376,0.089    c0.062,2.219,1.488,4.092,3.473,4.818L20.75,21.11l-0.018,0.007h-8.625l-0.016-0.007l-0.996-1.271    c1.982-0.729,3.41-2.602,3.471-4.818c0.001-0.035,1.377-0.089,1.377-0.089l-1.389-0.979l1.359-1.159l-1.499-0.044    c-0.414-1.295-1.627-2.231-3.06-2.231c-1.643,0-2.995,1.231-3.188,2.823l-0.001,0.001C7.389,13.23,6.66,12.014,5.911,9.89    c-1.669,1.984-1.568,4.185-1.065,5.009c-1.064,0.117-3.109-0.504-4.002-0.99c1.556,3.479,3.782,5.176,5.96,5.645    c0.739,0.393,1.579,0.619,2.474,0.619c0.095,0,0.187-0.01,0.281-0.016L9.116,20.91l-0.652,0.213H0v0.99h31.225v-0.99H24.38    L23.729,20.91z M20.23,13.923c-0.486,0-0.881-0.396-0.881-0.884c0-0.486,0.395-0.882,0.881-0.882c0.485,0,0.883,0.396,0.883,0.882    C21.113,13.528,20.719,13.923,20.23,13.923z M12.612,12.157c0.487,0,0.882,0.396,0.882,0.882c0,0.488-0.395,0.884-0.882,0.884    c-0.487,0-0.882-0.396-0.882-0.884C11.729,12.554,12.125,12.157,12.612,12.157z M21.986,19.931c0.324,0.102,0.66,0.17,1.006,0.208    l0.503,0.854l-0.126,0.129h-2.314L21.986,19.931z M9.348,20.992l0.503-0.854c0.346-0.038,0.682-0.107,1.005-0.209l0.932,1.191    H9.474L9.348,20.992z" fill="#fcfad0"/><path d="M20.383,12.957c-0.134,0-0.244-0.108-0.244-0.245c0-0.042,0.014-0.078,0.032-0.113l0,0c-0.244,0-0.44,0.198-0.44,0.44    c0,0.244,0.196,0.44,0.44,0.44s0.44-0.196,0.44-0.44c0-0.062-0.014-0.124-0.038-0.179C20.529,12.918,20.462,12.957,20.383,12.957z    " fill="#fcfad0"/></g><g transform="matrix(1.106761226507342 0.14436015914025352 -0.14436015914025352 1.106761226507342 122.89438426104816 10.397365514500628)"><path d="M21.452,13.136c0.983,0.204,2.028,0.182,3.062-0.119c3.357-0.98,5.663-3.562,4.709-6.92    c0.004-0.098,0.004-0.19,0.004-0.275c-0.002-0.158,1.129-2.212,1.129-2.212l-2.039,0.043c-0.914-1.354-2.629-2.028-4.282-1.546    c-1.894,0.553-3.04,2.43-2.728,4.33v0.002c-0.937,0.132-2.188-1.026-3.767-3.224c-1.258,2.852-0.399,5.354,0.458,6.137    c-1.188,0.493-3.757,0.464-4.95,0.204C16.016,13.043,18.781,13.331,21.452,13.136z M26.037,3.575    c0.562-0.165,1.15,0.158,1.314,0.72c0.164,0.562-0.16,1.151-0.721,1.315c-0.562,0.165-1.15-0.159-1.314-0.721    C25.15,4.326,25.475,3.738,26.037,3.575z" fill="#fffae4"/><path d="M26.552,5.08c0.281-0.083,0.442-0.376,0.361-0.657c-0.083-0.281-0.377-0.442-0.658-0.36l0,0    c0.034,0.034,0.062,0.073,0.075,0.121c0.045,0.156-0.044,0.318-0.2,0.365c-0.089,0.025-0.18,0.003-0.25-0.048    c-0.01,0.071-0.006,0.146,0.017,0.22C25.977,5,26.271,5.162,26.552,5.08z" fill="#fffae4"/><path d="M16.174,17.414c0.003-0.097,0.004-0.189,0.003-0.274c-0.001-0.158,1.13-2.212,1.13-2.212l-2.039,0.043    c-0.915-1.354-2.63-2.028-4.283-1.546c-1.894,0.553-3.04,2.43-2.728,4.329v0.003c-0.936,0.132-2.187-1.026-3.766-3.225    c-1.258,2.853-0.4,5.355,0.458,6.137C3.762,21.163,1.193,21.134,0,20.873c2.966,3.488,5.732,3.776,8.403,3.58    c0.984,0.204,2.029,0.183,3.062-0.119C14.822,23.354,17.128,20.773,16.174,17.414z M13.582,16.928    c-0.563,0.165-1.151-0.159-1.315-0.722c-0.165-0.562,0.158-1.15,0.721-1.313c0.562-0.165,1.15,0.158,1.314,0.72    C14.466,16.175,14.143,16.764,13.582,16.928z" fill="#fffae4"/><path d="M13.206,15.38L13.206,15.38c0.033,0.033,0.061,0.072,0.075,0.12c0.045,0.156-0.044,0.319-0.2,0.365    c-0.089,0.026-0.18,0.003-0.25-0.047c-0.01,0.071-0.006,0.146,0.016,0.219c0.082,0.281,0.376,0.442,0.657,0.36    c0.281-0.083,0.442-0.376,0.361-0.658C13.781,15.459,13.486,15.298,13.206,15.38z" fill="#fffae4"/><path d="M30.062,21.792c-0.002-0.157,1.129-2.212,1.129-2.212l-2.037,0.043c-0.916-1.354-2.631-2.027-4.283-1.546    c-1.895,0.554-3.04,2.431-2.729,4.33v0.002c-0.936,0.132-2.187-1.025-3.766-3.224c-1.258,2.852-0.4,5.354,0.458,6.137    c-1.188,0.493-3.757,0.464-4.95,0.204c2.967,3.488,5.732,3.776,8.403,3.58c0.983,0.204,2.028,0.182,3.062-0.119    c3.357-0.979,5.662-3.561,4.709-6.92C30.062,21.97,30.062,21.876,30.062,21.792z M27.466,21.58    c-0.563,0.165-1.151-0.159-1.315-0.721s0.158-1.151,0.722-1.314c0.562-0.164,1.149,0.158,1.313,0.721    C28.35,20.827,28.027,21.417,27.466,21.58z" fill="#fffae4"/><path d="M27.09,20.033L27.09,20.033c0.033,0.034,0.061,0.073,0.075,0.121c0.045,0.156-0.044,0.319-0.2,0.365    c-0.089,0.025-0.18,0.003-0.25-0.047c-0.01,0.07-0.006,0.146,0.016,0.219c0.082,0.281,0.377,0.442,0.658,0.36    c0.28-0.083,0.441-0.376,0.36-0.658C27.665,20.113,27.371,19.951,27.09,20.033z" fill="#fffae4"/></g><g transform="matrix(0.1120673194527626 0 0 0.1120673194527626 249.31082399598927 47.30826514214277)" id="L1_14"><path d="M412.41,0H99.589C47.531,0,5.332,42.201,5.332,94.257v205.172c0,52.057,42.201,94.257,94.257,94.257  h44.894c2.136,0,3.867,1.731,3.867,3.867v101.207c0,11.966,14.637,17.768,22.834,9.05l106.188-112.906  c0.731-0.778,1.751-1.218,2.818-1.218h132.22c52.057,0,94.257-42.201,94.257-94.257V94.257C506.667,42.201,464.466,0,412.41,0z" fill="#ec5569"/><path d="M188.005,358.509c0-2.249-1.676-4.072-3.744-4.072h-43.462c-50.396,0-91.25-44.439-91.25-99.257  V39.123c0-9.276,1.174-18.253,3.361-26.77C24.489,28.587,5.332,59.184,5.332,94.257v205.172c0,52.056,42.201,94.257,94.257,94.257  h44.894c2.136,0,3.867,1.732,3.867,3.867v101.207c0,11.966,14.637,17.768,22.834,9.05l16.82-17.885V358.509H188.005z" fill="#e63950"/><path d="M361.908,122.325L361.908,122.325c-23.931-23.931-62.731-23.931-86.663,0l-13.518,13.518  c-3.223,3.223-8.45,3.223-11.673,0l-13.302-13.302c-23.931-23.931-62.731-23.931-86.663,0l0,0  c-23.931,23.931-23.931,62.731,0,86.663l99.973,99.973c3.223,3.223,8.45,3.223,11.673,0l100.172-100.189  C385.839,185.056,385.839,146.257,361.908,122.325z" fill="#ec5569"/><path d="M361.908,122.325L361.908,122.325c-23.931-23.931-62.731-23.931-86.663,0l-13.518,13.518  c-3.223,3.223-8.45,3.223-11.673,0l-13.302-13.302c-23.931-23.931-62.731-23.931-86.663,0l0,0  c-23.931,23.931-23.931,62.731,0,86.663l99.973,99.973c3.223,3.223,8.45,3.223,11.673,0l100.172-100.189  C385.839,185.056,385.839,146.257,361.908,122.325z" fill="#ffeb79"/><path d="M182.145,209.204c-23.931-23.931-23.931-62.731,0-86.663l0,0c7.85-7.85,17.304-13.108,27.303-15.807  c-20.486-5.532-43.278-0.274-59.358,15.807l0,0c-23.931,23.931-23.931,62.731,0,86.663l99.973,99.973  c3.223,3.223,8.45,3.223,11.673,0l10.19-10.192L182.145,209.204z" fill="#d9cc3c"/></g></defs><g fi:class="KUsePattern" transform="matrix(1 0 0 1 20 20)" opacity="1"><pattern id="pattern_UNKNOWN" width="350" height="350" patternUnits="userSpaceOnUse"><use xlink:href="#UNKNOWN" x="-350" y="-350"/><use xlink:href="#UNKNOWN" x="0" y="-350"/><use xlink:href="#UNKNOWN" x="350" y="-350"/><use xlink:href="#UNKNOWN" x="-350" y="0"/><use xlink:href="#UNKNOWN" x="0" y="0"/><use xlink:href="#UNKNOWN" x="350" y="0"/><use xlink:href="#UNKNOWN" x="-350" y="350"/><use xlink:href="#UNKNOWN" x="0" y="350"/><use xlink:href="#UNKNOWN" x="350" y="350"/></pattern><rect x="0" y="0" width="100%" height="100%" fill="url(#pattern_UNKNOWN)"/></g><g fi:class="KUsePattern" opacity="0.5"><pattern id="pattern_L1_9" width="350" height="350" patternUnits="userSpaceOnUse"><use xlink:href="#L1_9" x="-350" y="-350"/><use xlink:href="#L1_9" x="0" y="-350"/><use xlink:href="#L1_9" x="350" y="-350"/><use xlink:href="#L1_9" x="-350" y="0"/><use xlink:href="#L1_9" x="0" y="0"/><use xlink:href="#L1_9" x="350" y="0"/><use xlink:href="#L1_9" x="-350" y="350"/><use xlink:href="#L1_9" x="0" y="350"/><use xlink:href="#L1_9" x="350" y="350"/></pattern><rect x="0" y="0" width="100%" height="100%" fill="url(#pattern_L1_9)"/></g><g fi:class="KUsePattern"><pattern id="pattern_L1_10" width="350" height="350" patternUnits="userSpaceOnUse"><use xlink:href="#L1_10" x="-350" y="-350"/><use xlink:href="#L1_10" x="0" y="-350"/><use xlink:href="#L1_10" x="350" y="-350"/><use xlink:href="#L1_10" x="-350" y="0"/><use xlink:href="#L1_10" x="0" y="0"/><use xlink:href="#L1_10" x="350" y="0"/><use xlink:href="#L1_10" x="-350" y="350"/><use xlink:href="#L1_10" x="0" y="350"/><use xlink:href="#L1_10" x="350" y="350"/></pattern><rect x="0" y="0" width="100%" height="100%" fill="url(#pattern_L1_10)"/></g><g fi:class="KUsePattern" transform="matrix(1 0 0 1 20 20)" opacity="0.25"><pattern id="pattern_UNKNOWN" width="350" height="350" patternUnits="userSpaceOnUse"><use xlink:href="#UNKNOWN" x="-350" y="-350"/><use xlink:href="#UNKNOWN" x="0" y="-350"/><use xlink:href="#UNKNOWN" x="350" y="-350"/><use xlink:href="#UNKNOWN" x="-350" y="0"/><use xlink:href="#UNKNOWN" x="0" y="0"/><use xlink:href="#UNKNOWN" x="350" y="0"/><use xlink:href="#UNKNOWN" x="-350" y="350"/><use xlink:href="#UNKNOWN" x="0" y="350"/><use xlink:href="#UNKNOWN" x="350" y="350"/></pattern><rect x="0" y="0" width="100%" height="100%" fill="url(#pattern_UNKNOWN)"/></g><g fi:class="KUsePattern"><pattern id="pattern_L1_14" width="350" height="350" patternUnits="userSpaceOnUse"><use xlink:href="#L1_14" x="-350" y="-350"/><use xlink:href="#L1_14" x="0" y="-350"/><use xlink:href="#L1_14" x="350" y="-350"/><use xlink:href="#L1_14" x="-350" y="0"/><use xlink:href="#L1_14" x="0" y="0"/><use xlink:href="#L1_14" x="350" y="0"/><use xlink:href="#L1_14" x="-350" y="350"/><use xlink:href="#L1_14" x="0" y="350"/><use xlink:href="#L1_14" x="350" y="350"/></pattern><rect x="0" y="0" width="100%" height="100%" fill="url(#pattern_L1_14)"/></g></svg>