<svg xmlns="http://www.w3.org/2000/svg" width="1440" height="900"><path d="M698,480L757,476L742,423Z" fill="#949494" stroke="#949494" stroke-width="1.51"/><path d="M742,423L696,418L698,480Z" fill="#979797" stroke="#979797" stroke-width="1.51"/><path d="M696,418L611,484L698,480Z" fill="#999999" stroke="#999999" stroke-width="1.51"/><path d="M757,476L838,409L742,423Z" fill="#939393" stroke="#939393" stroke-width="1.51"/><path d="M742,423L674,325L696,418Z" fill="#9f9f9f" stroke="#9f9f9f" stroke-width="1.51"/><path d="M696,418L594,419L611,484Z" fill="#9e9e9e" stroke="#9e9e9e" stroke-width="1.51"/><path d="M674,325L594,419L696,418Z" fill="#a4a4a4" stroke="#a4a4a4" stroke-width="1.51"/><path d="M759,307L674,325L742,423Z" fill="#a2a2a2" stroke="#a2a2a2" stroke-width="1.51"/><path d="M698,480L743,601L757,476Z" fill="#8d8d8d" stroke="#8d8d8d" stroke-width="1.51"/><path d="M757,476L871,473L838,409Z" fill="#8d8d8d" stroke="#8d8d8d" stroke-width="1.51"/><path d="M655,592L743,601L698,480Z" fill="#8b8b8b" stroke="#8b8b8b" stroke-width="1.51"/><path d="M853,602L871,473L757,476Z" fill="#858585" stroke="#858585" stroke-width="1.51"/><path d="M838,409L759,307L742,423Z" fill="#9a9a9a" stroke="#9a9a9a" stroke-width="1.51"/><path d="M611,484L655,592L698,480Z" fill="#949494" stroke="#949494" stroke-width="1.51"/><path d="M674,325L605,328L594,419Z" fill="#aaaaaa" stroke="#aaaaaa" stroke-width="1.51"/><path d="M691,243L605,328L674,325Z" fill="#afafaf" stroke="#afafaf" stroke-width="1.51"/><path d="M838,409L831,310L759,307Z" fill="#9c9c9c" stroke="#9c9c9c" stroke-width="1.51"/><path d="M941,327L831,310L838,409Z" fill="#979797" stroke="#979797" stroke-width="1.51"/><path d="M743,601L853,602L757,476Z" fill="#838383" stroke="#838383" stroke-width="1.51"/><path d="M871,473L919,470L838,409Z" fill="#898989" stroke="#898989" stroke-width="1.51"/><path d="M947,593L919,470L871,473Z" fill="#7f7f7f" stroke="#7f7f7f" stroke-width="1.51"/><path d="M743,601L748,649L853,602Z" fill="#7d7d7d" stroke="#7d7d7d" stroke-width="1.51"/><path d="M659,648L748,649L743,601Z" fill="#818181" stroke="#818181" stroke-width="1.51"/><path d="M655,592L659,648L743,601Z" fill="#868686" stroke="#868686" stroke-width="1.51"/><path d="M611,484L578,591L655,592Z" fill="#939393" stroke="#939393" stroke-width="1.51"/><path d="M486,516L578,591L611,484Z" fill="#9b9b9b" stroke="#9b9b9b" stroke-width="1.51"/><path d="M597,665L659,648L655,592Z" fill="#878787" stroke="#878787" stroke-width="1.51"/><path d="M759,307L691,243L674,325Z" fill="#ababab" stroke="#ababab" stroke-width="1.51"/><path d="M766,228L691,243L759,307Z" fill="#ababab" stroke="#ababab" stroke-width="1.51"/><path d="M831,310L766,228L759,307Z" fill="#a5a5a5" stroke="#a5a5a5" stroke-width="1.51"/><path d="M605,328L497,385L594,419Z" fill="#adadad" stroke="#adadad" stroke-width="1.51"/><path d="M594,419L486,516L611,484Z" fill="#a1a1a1" stroke="#a1a1a1" stroke-width="1.51"/><path d="M511,304L497,385L605,328Z" fill="#b4b4b4" stroke="#b4b4b4" stroke-width="1.51"/><path d="M748,649L861,657L853,602Z" fill="#787878" stroke="#787878" stroke-width="1.51"/><path d="M853,602L947,593L871,473Z" fill="#7b7b7b" stroke="#7b7b7b" stroke-width="1.51"/><path d="M755,754L861,657L748,649Z" fill="#757575" stroke="#757575" stroke-width="1.51"/><path d="M919,470L958,386L838,409Z" fill="#8a8a8a" stroke="#8a8a8a" stroke-width="1.51"/><path d="M831,310L842,213L766,228Z" fill="#a6a6a6" stroke="#a6a6a6" stroke-width="1.51"/><path d="M1009,423L958,386L919,470Z" fill="#858585" stroke="#858585" stroke-width="1.51"/><path d="M578,591L597,665L655,592Z" fill="#8c8c8c" stroke="#8c8c8c" stroke-width="1.51"/><path d="M659,648L679,742L748,649Z" fill="#7d7d7d" stroke="#7d7d7d" stroke-width="1.51"/><path d="M527,675L597,665L578,591Z" fill="#8d8d8d" stroke="#8d8d8d" stroke-width="1.51"/><path d="M497,385L486,516L594,419Z" fill="#a9a9a9" stroke="#a9a9a9" stroke-width="1.51"/><path d="M958,386L941,327L838,409Z" fill="#909090" stroke="#909090" stroke-width="1.51"/><path d="M934,650L947,593L853,602Z" fill="#737373" stroke="#737373" stroke-width="1.51"/><path d="M593,225L511,304L605,328Z" fill="#b8b8b8" stroke="#b8b8b8" stroke-width="1.51"/><path d="M691,243L593,225L605,328Z" fill="#b4b4b4" stroke="#b4b4b4" stroke-width="1.51"/><path d="M607,160L593,225L691,243Z" fill="#b9b9b9" stroke="#b9b9b9" stroke-width="1.51"/><path d="M486,516L483,572L578,591Z" fill="#9b9b9b" stroke="#9b9b9b" stroke-width="1.51"/><path d="M924,212L842,213L831,310Z" fill="#a2a2a2" stroke="#a2a2a2" stroke-width="1.51"/><path d="M766,228L758,158L691,243Z" fill="#b0b0b0" stroke="#b0b0b0" stroke-width="1.51"/><path d="M861,657L934,650L853,602Z" fill="#737373" stroke="#737373" stroke-width="1.51"/><path d="M1025,511L919,470L947,593Z" fill="#7a7a7a" stroke="#7a7a7a" stroke-width="1.51"/><path d="M1025,511L1009,423L919,470Z" fill="#7e7e7e" stroke="#7e7e7e" stroke-width="1.51"/><path d="M958,386L1045,333L941,327Z" fill="#8d8d8d" stroke="#8d8d8d" stroke-width="1.51"/><path d="M597,665L679,742L659,648Z" fill="#818181" stroke="#818181" stroke-width="1.51"/><path d="M861,657L954,740L934,650Z" fill="#6b6b6b" stroke="#6b6b6b" stroke-width="1.51"/><path d="M597,753L679,742L597,665Z" fill="#7f7f7f" stroke="#7f7f7f" stroke-width="1.51"/><path d="M429,337L436,428L497,385Z" fill="#b5b5b5" stroke="#b5b5b5" stroke-width="1.51"/><path d="M497,385L436,428L486,516Z" fill="#acacac" stroke="#acacac" stroke-width="1.51"/><path d="M486,516L403,509L483,572Z" fill="#a2a2a2" stroke="#a2a2a2" stroke-width="1.51"/><path d="M483,572L527,675L578,591Z" fill="#939393" stroke="#939393" stroke-width="1.51"/><path d="M679,742L755,754L748,649Z" fill="#777777" stroke="#777777" stroke-width="1.51"/><path d="M842,213L758,158L766,228Z" fill="#acacac" stroke="#acacac" stroke-width="1.51"/><path d="M1012,580L1025,511L947,593Z" fill="#737373" stroke="#737373" stroke-width="1.51"/><path d="M1007,648L1012,580L947,593Z" fill="#6e6e6e" stroke="#6e6e6e" stroke-width="1.51"/><path d="M941,327L924,212L831,310Z" fill="#9c9c9c" stroke="#9c9c9c" stroke-width="1.51"/><path d="M842,213L870,132L758,158Z" fill="#acacac" stroke="#acacac" stroke-width="1.51"/><path d="M1041,225L924,212L941,327Z" fill="#989898" stroke="#989898" stroke-width="1.51"/><path d="M758,158L692,143L691,243Z" fill="#b5b5b5" stroke="#b5b5b5" stroke-width="1.51"/><path d="M692,143L607,160L691,243Z" fill="#b9b9b9" stroke="#b9b9b9" stroke-width="1.51"/><path d="M593,225L482,235L511,304Z" fill="#bebebe" stroke="#bebebe" stroke-width="1.51"/><path d="M511,304L429,337L497,385Z" fill="#b9b9b9" stroke="#b9b9b9" stroke-width="1.51"/><path d="M428,241L429,337L511,304Z" fill="#c0c0c0" stroke="#c0c0c0" stroke-width="1.51"/><path d="M527,675L597,753L597,665Z" fill="#868686" stroke="#868686" stroke-width="1.51"/><path d="M690,834L768,833L755,754Z" fill="#696969" stroke="#696969" stroke-width="1.51"/><path d="M436,428L403,509L486,516Z" fill="#a9a9a9" stroke="#a9a9a9" stroke-width="1.51"/><path d="M483,572L421,662L527,675Z" fill="#949494" stroke="#949494" stroke-width="1.51"/><path d="M333,404L403,509L436,428Z" fill="#b1b1b1" stroke="#b1b1b1" stroke-width="1.51"/><path d="M755,754L863,755L861,657Z" fill="#6e6e6e" stroke="#6e6e6e" stroke-width="1.51"/><path d="M934,650L1007,648L947,593Z" fill="#6d6d6d" stroke="#6d6d6d" stroke-width="1.51"/><path d="M768,833L863,755L755,754Z" fill="#696969" stroke="#696969" stroke-width="1.51"/><path d="M484,158L482,235L593,225Z" fill="#c4c4c4" stroke="#c4c4c4" stroke-width="1.51"/><path d="M403,509L423,603L483,572Z" fill="#a0a0a0" stroke="#a0a0a0" stroke-width="1.51"/><path d="M527,675L482,744L597,753Z" fill="#868686" stroke="#868686" stroke-width="1.51"/><path d="M954,740L1007,648L934,650Z" fill="#686868" stroke="#686868" stroke-width="1.51"/><path d="M1123,564L1094,492L1025,511Z" fill="#717171" stroke="#717171" stroke-width="1.51"/><path d="M1009,423L1045,333L958,386Z" fill="#878787" stroke="#878787" stroke-width="1.51"/><path d="M1113,427L1045,333L1009,423Z" fill="#818181" stroke="#818181" stroke-width="1.51"/><path d="M924,212L917,162L842,213Z" fill="#a4a4a4" stroke="#a4a4a4" stroke-width="1.51"/><path d="M758,158L763,42L692,143Z" fill="#b8b8b8" stroke="#b8b8b8" stroke-width="1.51"/><path d="M1041,225L917,162L924,212Z" fill="#9e9e9e" stroke="#9e9e9e" stroke-width="1.51"/><path d="M917,162L870,132L842,213Z" fill="#a7a7a7" stroke="#a7a7a7" stroke-width="1.51"/><path d="M863,755L954,740L861,657Z" fill="#696969" stroke="#696969" stroke-width="1.51"/><path d="M429,337L333,404L436,428Z" fill="#b7b7b7" stroke="#b7b7b7" stroke-width="1.51"/><path d="M482,235L428,241L511,304Z" fill="#c2c2c2" stroke="#c2c2c2" stroke-width="1.51"/><path d="M431,162L428,241L482,235Z" fill="#c8c8c8" stroke="#c8c8c8" stroke-width="1.51"/><path d="M423,603L421,662L483,572Z" fill="#9a9a9a" stroke="#9a9a9a" stroke-width="1.51"/><path d="M349,656L421,662L423,603Z" fill="#999999" stroke="#999999" stroke-width="1.51"/><path d="M1025,511L1094,492L1009,423Z" fill="#797979" stroke="#797979" stroke-width="1.51"/><path d="M1123,564L1025,511L1012,580Z" fill="#6f6f6f" stroke="#6f6f6f" stroke-width="1.51"/><path d="M421,662L482,744L527,675Z" fill="#8e8e8e" stroke="#8e8e8e" stroke-width="1.51"/><path d="M690,834L679,742L600,824Z" fill="#707070" stroke="#707070" stroke-width="1.51"/><path d="M690,834L755,754L679,742Z" fill="#707070" stroke="#707070" stroke-width="1.51"/><path d="M863,755L930,816L954,740Z" fill="#616161" stroke="#616161" stroke-width="1.51"/><path d="M600,824L679,742L597,753Z" fill="#787878" stroke="#787878" stroke-width="1.51"/><path d="M607,160L484,158L593,225Z" fill="#c2c2c2" stroke="#c2c2c2" stroke-width="1.51"/><path d="M572,58L484,158L607,160Z" fill="#c8c8c8" stroke="#c8c8c8" stroke-width="1.51"/><path d="M1094,492L1113,427L1009,423Z" fill="#7a7a7a" stroke="#7a7a7a" stroke-width="1.51"/><path d="M490,842L600,824L597,753Z" fill="#777777" stroke="#777777" stroke-width="1.51"/><path d="M1045,333L1041,225L941,327Z" fill="#929292" stroke="#929292" stroke-width="1.51"/><path d="M953,77L851,84L870,132Z" fill="#acacac" stroke="#acacac" stroke-width="1.51"/><path d="M1093,234L1041,225L1045,333Z" fill="#909090" stroke="#909090" stroke-width="1.51"/><path d="M953,77L870,132L917,162Z" fill="#a9a9a9" stroke="#a9a9a9" stroke-width="1.51"/><path d="M870,132L851,84L758,158Z" fill="#afafaf" stroke="#afafaf" stroke-width="1.51"/><path d="M692,143L666,42L607,160Z" fill="#c0c0c0" stroke="#c0c0c0" stroke-width="1.51"/><path d="M768,833L856,827L863,755Z" fill="#626262" stroke="#626262" stroke-width="1.51"/><path d="M340,254L349,335L429,337Z" fill="#c4c4c4" stroke="#c4c4c4" stroke-width="1.51"/><path d="M403,509L323,583L423,603Z" fill="#a3a3a3" stroke="#a3a3a3" stroke-width="1.51"/><path d="M340,254L429,337L428,241Z" fill="#c6c6c6" stroke="#c6c6c6" stroke-width="1.51"/><path d="M349,335L333,404L429,337Z" fill="#bdbdbd" stroke="#bdbdbd" stroke-width="1.51"/><path d="M1113,427L1110,331L1045,333Z" fill="#828282" stroke="#828282" stroke-width="1.51"/><path d="M482,744L490,842L597,753Z" fill="#7f7f7f" stroke="#7f7f7f" stroke-width="1.51"/><path d="M421,662L437,746L482,744Z" fill="#8d8d8d" stroke="#8d8d8d" stroke-width="1.51"/><path d="M349,656L437,746L421,662Z" fill="#939393" stroke="#939393" stroke-width="1.51"/><path d="M1109,657L1123,564L1012,580Z" fill="#686868" stroke="#686868" stroke-width="1.51"/><path d="M1094,492L1177,493L1113,427Z" fill="#737373" stroke="#737373" stroke-width="1.51"/><path d="M1113,427L1216,399L1110,331Z" fill="#7b7b7b" stroke="#7b7b7b" stroke-width="1.51"/><path d="M1109,657L1012,580L1007,648Z" fill="#676767" stroke="#676767" stroke-width="1.51"/><path d="M856,827L930,816L863,755Z" fill="#5e5e5e" stroke="#5e5e5e" stroke-width="1.51"/><path d="M954,740L1011,772L1007,648Z" fill="#616161" stroke="#616161" stroke-width="1.51"/><path d="M851,84L763,42L758,158Z" fill="#b5b5b5" stroke="#b5b5b5" stroke-width="1.51"/><path d="M484,158L431,162L482,235Z" fill="#cacaca" stroke="#cacaca" stroke-width="1.51"/><path d="M416,82L431,162L484,158Z" fill="#d0d0d0" stroke="#d0d0d0" stroke-width="1.51"/><path d="M763,42L666,42L692,143Z" fill="#bdbdbd" stroke="#bdbdbd" stroke-width="1.51"/><path d="M333,404L308,497L403,509Z" fill="#b0b0b0" stroke="#b0b0b0" stroke-width="1.51"/><path d="M243,506L308,497L238,401Z" fill="#b6b6b6" stroke="#b6b6b6" stroke-width="1.51"/><path d="M308,497L323,583L403,509Z" fill="#aaaaaa" stroke="#aaaaaa" stroke-width="1.51"/><path d="M930,816L1011,772L954,740Z" fill="#5c5c5c" stroke="#5c5c5c" stroke-width="1.51"/><path d="M323,583L349,656L423,603Z" fill="#9e9e9e" stroke="#9e9e9e" stroke-width="1.51"/><path d="M666,42L572,58L607,160Z" fill="#c5c5c5" stroke="#c5c5c5" stroke-width="1.51"/><path d="M1041,126L953,77L917,162Z" fill="#a4a4a4" stroke="#a4a4a4" stroke-width="1.51"/><path d="M1110,331L1093,234L1045,333Z" fill="#8b8b8b" stroke="#8b8b8b" stroke-width="1.51"/><path d="M1011,772L1109,657L1007,648Z" fill="#616161" stroke="#616161" stroke-width="1.51"/><path d="M238,401L308,497L333,404Z" fill="#b9b9b9" stroke="#b9b9b9" stroke-width="1.51"/><path d="M340,170L340,254L428,241Z" fill="#cccccc" stroke="#cccccc" stroke-width="1.51"/><path d="M851,84L866,-6L763,42Z" fill="#b6b6b6" stroke="#b6b6b6" stroke-width="1.51"/><path d="M1041,126L917,162L1041,225Z" fill="#9d9d9d" stroke="#9d9d9d" stroke-width="1.51"/><path d="M431,162L340,170L428,241Z" fill="#cdcdcd" stroke="#cdcdcd" stroke-width="1.51"/><path d="M572,58L522,53L484,158Z" fill="#cdcdcd" stroke="#cdcdcd" stroke-width="1.51"/><path d="M579,-10L522,53L572,58Z" fill="#cecece" stroke="#cecece" stroke-width="1.51"/><path d="M437,746L490,842L482,744Z" fill="#838383" stroke="#838383" stroke-width="1.51"/><path d="M595,909L697,910L690,834Z" fill="#626262" stroke="#626262" stroke-width="1.51"/><path d="M690,834L697,910L768,833Z" fill="#626262" stroke="#626262" stroke-width="1.51"/><path d="M410,862L490,842L437,746Z" fill="#7e7e7e" stroke="#7e7e7e" stroke-width="1.51"/><path d="M1216,559L1177,493L1123,564Z" fill="#676767" stroke="#676767" stroke-width="1.51"/><path d="M1123,564L1177,493L1094,492Z" fill="#6d6d6d" stroke="#6d6d6d" stroke-width="1.51"/><path d="M1110,331L1202,298L1093,234Z" fill="#888888" stroke="#888888" stroke-width="1.51"/><path d="M595,909L690,834L600,824Z" fill="#6a6a6a" stroke="#6a6a6a" stroke-width="1.51"/><path d="M768,833L836,923L856,827Z" fill="#5a5a5a" stroke="#5a5a5a" stroke-width="1.51"/><path d="M856,827L954,916L930,816Z" fill="#545454" stroke="#545454" stroke-width="1.51"/><path d="M1112,147L1041,126L1041,225Z" fill="#989898" stroke="#989898" stroke-width="1.51"/><path d="M490,842L595,909L600,824Z" fill="#6f6f6f" stroke="#6f6f6f" stroke-width="1.51"/><path d="M666,42L579,-10L572,58Z" fill="#cacaca" stroke="#cacaca" stroke-width="1.51"/><path d="M763,42L690,-14L666,42Z" fill="#c1c1c1" stroke="#c1c1c1" stroke-width="1.51"/><path d="M774,-41L690,-14L763,42Z" fill="#c0c0c0" stroke="#c0c0c0" stroke-width="1.51"/><path d="M930,816L1029,836L1011,772Z" fill="#565656" stroke="#565656" stroke-width="1.51"/><path d="M747,937L836,923L768,833Z" fill="#575757" stroke="#575757" stroke-width="1.51"/><path d="M747,937L768,833L697,910Z" fill="#5b5b5b" stroke="#5b5b5b" stroke-width="1.51"/><path d="M238,401L333,404L253,319Z" fill="#c1c1c1" stroke="#c1c1c1" stroke-width="1.51"/><path d="M416,82L340,170L431,162Z" fill="#d2d2d2" stroke="#d2d2d2" stroke-width="1.51"/><path d="M680,991L747,937L697,910Z" fill="#575757" stroke="#575757" stroke-width="1.51"/><path d="M953,77L866,-6L851,84Z" fill="#afafaf" stroke="#afafaf" stroke-width="1.51"/><path d="M945,-10L866,-6L953,77Z" fill="#afafaf" stroke="#afafaf" stroke-width="1.51"/><path d="M308,497L243,506L323,583Z" fill="#aeaeae" stroke="#aeaeae" stroke-width="1.51"/><path d="M323,583L238,661L349,656Z" fill="#a0a0a0" stroke="#a0a0a0" stroke-width="1.51"/><path d="M333,404L349,335L253,319Z" fill="#c2c2c2" stroke="#c2c2c2" stroke-width="1.51"/><path d="M1011,772L1115,773L1109,657Z" fill="#595959" stroke="#595959" stroke-width="1.51"/><path d="M954,916L1029,836L930,816Z" fill="#505050" stroke="#505050" stroke-width="1.51"/><path d="M522,53L416,82L484,158Z" fill="#d1d1d1" stroke="#d1d1d1" stroke-width="1.51"/><path d="M419,-45L416,82L522,53Z" fill="#d7d7d7" stroke="#d7d7d7" stroke-width="1.51"/><path d="M690,-14L579,-10L666,42Z" fill="#c8c8c8" stroke="#c8c8c8" stroke-width="1.51"/><path d="M1041,126L1003,53L953,77Z" fill="#a3a3a3" stroke="#a3a3a3" stroke-width="1.51"/><path d="M253,319L349,335L340,254Z" fill="#c9c9c9" stroke="#c9c9c9" stroke-width="1.51"/><path d="M234,229L253,319L340,254Z" fill="#cecece" stroke="#cecece" stroke-width="1.51"/><path d="M1177,493L1216,399L1113,427Z" fill="#727272" stroke="#727272" stroke-width="1.51"/><path d="M1093,234L1112,147L1041,225Z" fill="#939393" stroke="#939393" stroke-width="1.51"/><path d="M1041,126L1130,60L1003,53Z" fill="#9f9f9f" stroke="#9f9f9f" stroke-width="1.51"/><path d="M1278,395L1216,399L1303,513Z" fill="#686868" stroke="#686868" stroke-width="1.51"/><path d="M1198,227L1112,147L1093,234Z" fill="#909090" stroke="#909090" stroke-width="1.51"/><path d="M866,-6L774,-41L763,42Z" fill="#bbbbbb" stroke="#bbbbbb" stroke-width="1.51"/><path d="M690,-14L659,-98L579,-10Z" fill="#cbcbcb" stroke="#cbcbcb" stroke-width="1.51"/><path d="M1196,648L1216,559L1123,564Z" fill="#606060" stroke="#606060" stroke-width="1.51"/><path d="M1196,648L1123,564L1109,657Z" fill="#606060" stroke="#606060" stroke-width="1.51"/><path d="M1216,399L1202,298L1110,331Z" fill="#7e7e7e" stroke="#7e7e7e" stroke-width="1.51"/><path d="M1086,830L1115,773L1011,772Z" fill="#525252" stroke="#525252" stroke-width="1.51"/><path d="M243,506L238,593L323,583Z" fill="#aaaaaa" stroke="#aaaaaa" stroke-width="1.51"/><path d="M349,656L324,769L437,746Z" fill="#919191" stroke="#919191" stroke-width="1.51"/><path d="M154,602L238,593L243,506Z" fill="#adadad" stroke="#adadad" stroke-width="1.51"/><path d="M1214,745L1196,648L1109,657Z" fill="#575757" stroke="#575757" stroke-width="1.51"/><path d="M238,661L324,769L349,656Z" fill="#989898" stroke="#989898" stroke-width="1.51"/><path d="M490,842L519,922L595,909Z" fill="#6c6c6c" stroke="#6c6c6c" stroke-width="1.51"/><path d="M402,913L519,922L490,842Z" fill="#707070" stroke="#707070" stroke-width="1.51"/><path d="M595,909L680,991L697,910Z" fill="#5b5b5b" stroke="#5b5b5b" stroke-width="1.51"/><path d="M836,923L954,916L856,827Z" fill="#515151" stroke="#515151" stroke-width="1.51"/><path d="M1029,836L1086,830L1011,772Z" fill="#515151" stroke="#515151" stroke-width="1.51"/><path d="M867,995L954,916L836,923Z" fill="#494949" stroke="#494949" stroke-width="1.51"/><path d="M336,816L410,862L437,746Z" fill="#838383" stroke="#838383" stroke-width="1.51"/><path d="M866,-6L782,-92L774,-41Z" fill="#bdbdbd" stroke="#bdbdbd" stroke-width="1.51"/><path d="M1003,53L945,-10L953,77Z" fill="#a9a9a9" stroke="#a9a9a9" stroke-width="1.51"/><path d="M1019,-31L945,-10L1003,53Z" fill="#ababab" stroke="#ababab" stroke-width="1.51"/><path d="M1115,773L1214,745L1109,657Z" fill="#555555" stroke="#555555" stroke-width="1.51"/><path d="M1117,902L1086,830L1029,836Z" fill="#474747" stroke="#474747" stroke-width="1.51"/><path d="M1202,298L1198,227L1093,234Z" fill="#888888" stroke="#888888" stroke-width="1.51"/><path d="M1112,147L1130,60L1041,126Z" fill="#9a9a9a" stroke="#9a9a9a" stroke-width="1.51"/><path d="M1265,246L1198,227L1202,298Z" fill="#818181" stroke="#818181" stroke-width="1.51"/><path d="M238,593L238,661L323,583Z" fill="#a4a4a4" stroke="#a4a4a4" stroke-width="1.51"/><path d="M257,854L336,816L324,769Z" fill="#878787" stroke="#878787" stroke-width="1.51"/><path d="M324,769L336,816L437,746Z" fill="#8a8a8a" stroke="#8a8a8a" stroke-width="1.51"/><path d="M571,1007L680,991L595,909Z" fill="#5b5b5b" stroke="#5b5b5b" stroke-width="1.51"/><path d="M747,937L773,995L836,923Z" fill="#4f4f4f" stroke="#4f4f4f" stroke-width="1.51"/><path d="M680,991L773,995L747,937Z" fill="#515151" stroke="#515151" stroke-width="1.51"/><path d="M340,170L234,229L340,254Z" fill="#d1d1d1" stroke="#d1d1d1" stroke-width="1.51"/><path d="M160,403L166,484L238,401Z" fill="#bfbfbf" stroke="#bfbfbf" stroke-width="1.51"/><path d="M238,401L166,484L243,506Z" fill="#b9b9b9" stroke="#b9b9b9" stroke-width="1.51"/><path d="M238,593L158,648L238,661Z" fill="#a5a5a5" stroke="#a5a5a5" stroke-width="1.51"/><path d="M265,142L234,229L340,170Z" fill="#d6d6d6" stroke="#d6d6d6" stroke-width="1.51"/><path d="M774,-41L659,-98L690,-14Z" fill="#c5c5c5" stroke="#c5c5c5" stroke-width="1.51"/><path d="M842,-135L782,-92L866,-6Z" fill="#bcbcbc" stroke="#bcbcbc" stroke-width="1.51"/><path d="M416,82L338,56L340,170Z" fill="#d7d7d7" stroke="#d7d7d7" stroke-width="1.51"/><path d="M579,-10L495,-48L522,53Z" fill="#d4d4d4" stroke="#d4d4d4" stroke-width="1.51"/><path d="M596,-129L495,-48L579,-10Z" fill="#d4d4d4" stroke="#d4d4d4" stroke-width="1.51"/><path d="M1216,399L1278,395L1202,298Z" fill="#747474" stroke="#747474" stroke-width="1.51"/><path d="M1303,513L1216,399L1177,493Z" fill="#686868" stroke="#686868" stroke-width="1.51"/><path d="M1303,513L1177,493L1216,559Z" fill="#626262" stroke="#626262" stroke-width="1.51"/><path d="M954,916L1030,945L1029,836Z" fill="#464646" stroke="#464646" stroke-width="1.51"/><path d="M773,995L867,995L836,923Z" fill="#4b4b4b" stroke="#4b4b4b" stroke-width="1.51"/><path d="M351,-32L338,56L416,82Z" fill="#dcdcdc" stroke="#dcdcdc" stroke-width="1.51"/><path d="M338,56L265,142L340,170Z" fill="#d9d9d9" stroke="#d9d9d9" stroke-width="1.51"/><path d="M1198,227L1183,136L1112,147Z" fill="#8f8f8f" stroke="#8f8f8f" stroke-width="1.51"/><path d="M1260,165L1183,136L1198,227Z" fill="#898989" stroke="#898989" stroke-width="1.51"/><path d="M782,-92L659,-98L774,-41Z" fill="#c4c4c4" stroke="#c4c4c4" stroke-width="1.51"/><path d="M519,922L571,1007L595,909Z" fill="#626262" stroke="#626262" stroke-width="1.51"/><path d="M410,862L402,913L490,842Z" fill="#757575" stroke="#757575" stroke-width="1.51"/><path d="M336,816L402,913L410,862Z" fill="#7a7a7a" stroke="#7a7a7a" stroke-width="1.51"/><path d="M160,403L238,401L174,306Z" fill="#c6c6c6" stroke="#c6c6c6" stroke-width="1.51"/><path d="M1183,136L1130,60L1112,147Z" fill="#969696" stroke="#969696" stroke-width="1.51"/><path d="M945,-10L931,-104L866,-6Z" fill="#b3b3b3" stroke="#b3b3b3" stroke-width="1.51"/><path d="M1182,850L1214,745L1115,773Z" fill="#4a4a4a" stroke="#4a4a4a" stroke-width="1.51"/><path d="M1300,576L1303,513L1216,559Z" fill="#5a5a5a" stroke="#5a5a5a" stroke-width="1.51"/><path d="M1182,850L1115,773L1086,830Z" fill="#4a4a4a" stroke="#4a4a4a" stroke-width="1.51"/><path d="M1096,-43L1019,-31L1003,53Z" fill="#a7a7a7" stroke="#a7a7a7" stroke-width="1.51"/><path d="M174,306L238,401L253,319Z" fill="#c9c9c9" stroke="#c9c9c9" stroke-width="1.51"/><path d="M174,306L253,319L234,229Z" fill="#d0d0d0" stroke="#d0d0d0" stroke-width="1.51"/><path d="M161,243L174,306L234,229Z" fill="#d3d3d3" stroke="#d3d3d3" stroke-width="1.51"/><path d="M680,991L571,1007L773,995Z" fill="#535353" stroke="#535353" stroke-width="1.51"/><path d="M773,995L947,1030L867,995Z" fill="#444444" stroke="#444444" stroke-width="1.51"/><path d="M492,1001L571,1007L519,922Z" fill="#626262" stroke="#626262" stroke-width="1.51"/><path d="M1012,1008L1030,945L954,916Z" fill="#404040" stroke="#404040" stroke-width="1.51"/><path d="M1303,318L1265,246L1202,298Z" fill="#7a7a7a" stroke="#7a7a7a" stroke-width="1.51"/><path d="M1183,136L1178,48L1130,60Z" fill="#969696" stroke="#969696" stroke-width="1.51"/><path d="M1278,395L1303,318L1202,298Z" fill="#747474" stroke="#747474" stroke-width="1.51"/><path d="M1278,644L1216,559L1196,648Z" fill="#575757" stroke="#575757" stroke-width="1.51"/><path d="M1214,745L1278,644L1196,648Z" fill="#515151" stroke="#515151" stroke-width="1.51"/><path d="M1278,644L1300,576L1216,559Z" fill="#575757" stroke="#575757" stroke-width="1.51"/><path d="M238,661L228,766L324,769Z" fill="#969696" stroke="#969696" stroke-width="1.51"/><path d="M336,816L328,939L402,913Z" fill="#777777" stroke="#777777" stroke-width="1.51"/><path d="M158,748L228,766L238,661Z" fill="#9a9a9a" stroke="#9a9a9a" stroke-width="1.51"/><path d="M135,170L234,229L265,142Z" fill="#dadada" stroke="#dadada" stroke-width="1.51"/><path d="M495,-48L419,-45L522,53Z" fill="#d8d8d8" stroke="#d8d8d8" stroke-width="1.51"/><path d="M398,-114L419,-45L495,-48Z" fill="#dedede" stroke="#dedede" stroke-width="1.51"/><path d="M166,484L154,602L243,506Z" fill="#b2b2b2" stroke="#b2b2b2" stroke-width="1.51"/><path d="M94,500L154,602L166,484Z" fill="#b5b5b5" stroke="#b5b5b5" stroke-width="1.51"/><path d="M402,913L492,1001L519,922Z" fill="#696969" stroke="#696969" stroke-width="1.51"/><path d="M433,1013L492,1001L402,913Z" fill="#676767" stroke="#676767" stroke-width="1.51"/><path d="M1214,745L1292,729L1278,644Z" fill="#4b4b4b" stroke="#4b4b4b" stroke-width="1.51"/><path d="M1030,945L1117,902L1029,836Z" fill="#434343" stroke="#434343" stroke-width="1.51"/><path d="M1353,334L1303,318L1278,395Z" fill="#6d6d6d" stroke="#6d6d6d" stroke-width="1.51"/><path d="M1019,-31L931,-104L945,-10Z" fill="#afafaf" stroke="#afafaf" stroke-width="1.51"/><path d="M842,-135L596,-129L659,-98Z" fill="#cacaca" stroke="#cacaca" stroke-width="1.51"/><path d="M1016,-128L931,-104L1019,-31Z" fill="#afafaf" stroke="#afafaf" stroke-width="1.51"/><path d="M659,-98L596,-129L579,-10Z" fill="#cfcfcf" stroke="#cfcfcf" stroke-width="1.51"/><path d="M842,-135L659,-98L782,-92Z" fill="#c3c3c3" stroke="#c3c3c3" stroke-width="1.51"/><path d="M154,602L158,648L238,593Z" fill="#a8a8a8" stroke="#a8a8a8" stroke-width="1.51"/><path d="M931,-104L842,-135L866,-6Z" fill="#b8b8b8" stroke="#b8b8b8" stroke-width="1.51"/><path d="M1117,902L1182,850L1086,830Z" fill="#434343" stroke="#434343" stroke-width="1.51"/><path d="M135,170L161,243L234,229Z" fill="#d9d9d9" stroke="#d9d9d9" stroke-width="1.51"/><path d="M174,306L80,392L160,403Z" fill="#cacaca" stroke="#cacaca" stroke-width="1.51"/><path d="M160,403L94,500L166,484Z" fill="#bdbdbd" stroke="#bdbdbd" stroke-width="1.51"/><path d="M234,63L265,142L338,56Z" fill="#dedede" stroke="#dedede" stroke-width="1.51"/><path d="M1366,210L1260,165L1265,246Z" fill="#7c7c7c" stroke="#7c7c7c" stroke-width="1.51"/><path d="M1265,246L1260,165L1198,227Z" fill="#828282" stroke="#828282" stroke-width="1.51"/><path d="M1130,60L1096,-43L1003,53Z" fill="#a2a2a2" stroke="#a2a2a2" stroke-width="1.51"/><path d="M1295,54L1178,48L1183,136Z" fill="#8f8f8f" stroke="#8f8f8f" stroke-width="1.51"/><path d="M1030,945L1111,990L1117,902Z" fill="#3b3b3b" stroke="#3b3b3b" stroke-width="1.51"/><path d="M867,995L947,1030L954,916Z" fill="#434343" stroke="#434343" stroke-width="1.51"/><path d="M571,1007L947,1030L773,995Z" fill="#4b4b4b" stroke="#4b4b4b" stroke-width="1.51"/><path d="M135,841L257,854L228,766Z" fill="#8b8b8b" stroke="#8b8b8b" stroke-width="1.51"/><path d="M228,766L257,854L324,769Z" fill="#8c8c8c" stroke="#8c8c8c" stroke-width="1.51"/><path d="M419,-45L351,-32L416,82Z" fill="#dddddd" stroke="#dddddd" stroke-width="1.51"/><path d="M398,-114L351,-32L419,-45Z" fill="#e1e1e1" stroke="#e1e1e1" stroke-width="1.51"/><path d="M1178,48L1096,-43L1130,60Z" fill="#9d9d9d" stroke="#9d9d9d" stroke-width="1.51"/><path d="M947,1030L1012,1008L954,916Z" fill="#3f3f3f" stroke="#3f3f3f" stroke-width="1.51"/><path d="M1117,902L1212,947L1182,850Z" fill="#393939" stroke="#393939" stroke-width="1.51"/><path d="M257,854L328,939L336,816Z" fill="#7e7e7e" stroke="#7e7e7e" stroke-width="1.51"/><path d="M596,-129L510,-133L495,-48Z" fill="#d9d9d9" stroke="#d9d9d9" stroke-width="1.51"/><path d="M842,-135L510,-133L596,-129Z" fill="#cfcfcf" stroke="#cfcfcf" stroke-width="1.51"/><path d="M1278,644L1345,579L1300,576Z" fill="#515151" stroke="#515151" stroke-width="1.51"/><path d="M1273,855L1292,729L1214,745Z" fill="#434343" stroke="#434343" stroke-width="1.51"/><path d="M346,992L433,1013L402,913Z" fill="#6a6a6a" stroke="#6a6a6a" stroke-width="1.51"/><path d="M492,1001L433,1013L571,1007Z" fill="#606060" stroke="#606060" stroke-width="1.51"/><path d="M571,1007L433,1013L947,1030Z" fill="#535353" stroke="#535353" stroke-width="1.51"/><path d="M238,-16L234,63L338,56Z" fill="#e2e2e2" stroke="#e2e2e2" stroke-width="1.51"/><path d="M1371,650L1345,579L1278,644Z" fill="#4c4c4c" stroke="#4c4c4c" stroke-width="1.51"/><path d="M1300,576L1345,579L1303,513Z" fill="#545454" stroke="#545454" stroke-width="1.51"/><path d="M1368,402L1353,334L1278,395Z" fill="#676767" stroke="#676767" stroke-width="1.51"/><path d="M154,602L83,583L158,648Z" fill="#acacac" stroke="#acacac" stroke-width="1.51"/><path d="M80,392L94,500L160,403Z" fill="#c3c3c3" stroke="#c3c3c3" stroke-width="1.51"/><path d="M227,998L346,992L328,939Z" fill="#6f6f6f" stroke="#6f6f6f" stroke-width="1.51"/><path d="M158,648L158,748L238,661Z" fill="#9f9f9f" stroke="#9f9f9f" stroke-width="1.51"/><path d="M70,672L158,748L158,648Z" fill="#a2a2a2" stroke="#a2a2a2" stroke-width="1.51"/><path d="M1368,402L1278,395L1303,513Z" fill="#616161" stroke="#616161" stroke-width="1.51"/><path d="M1303,318L1366,210L1265,246Z" fill="#767676" stroke="#767676" stroke-width="1.51"/><path d="M1345,579L1368,510L1303,513Z" fill="#555555" stroke="#555555" stroke-width="1.51"/><path d="M1368,510L1368,402L1303,513Z" fill="#5a5a5a" stroke="#5a5a5a" stroke-width="1.51"/><path d="M49,331L80,392L174,306Z" fill="#cfcfcf" stroke="#cfcfcf" stroke-width="1.51"/><path d="M49,331L174,306L61,249Z" fill="#d6d6d6" stroke="#d6d6d6" stroke-width="1.51"/><path d="M931,-104L1016,-128L842,-135Z" fill="#b6b6b6" stroke="#b6b6b6" stroke-width="1.51"/><path d="M1096,-43L1016,-128L1019,-31Z" fill="#a9a9a9" stroke="#a9a9a9" stroke-width="1.51"/><path d="M94,500L83,583L154,602Z" fill="#b2b2b2" stroke="#b2b2b2" stroke-width="1.51"/><path d="M-12,505L83,583L94,500Z" fill="#b8b8b8" stroke="#b8b8b8" stroke-width="1.51"/><path d="M234,63L135,170L265,142Z" fill="#dedede" stroke="#dedede" stroke-width="1.51"/><path d="M328,939L346,992L402,913Z" fill="#6f6f6f" stroke="#6f6f6f" stroke-width="1.51"/><path d="M234,920L328,939L257,854Z" fill="#7a7a7a" stroke="#7a7a7a" stroke-width="1.51"/><path d="M351,-32L238,-16L338,56Z" fill="#e2e2e2" stroke="#e2e2e2" stroke-width="1.51"/><path d="M510,-133L398,-114L495,-48Z" fill="#dddddd" stroke="#dddddd" stroke-width="1.51"/><path d="M1182,850L1273,855L1214,745Z" fill="#404040" stroke="#404040" stroke-width="1.51"/><path d="M1012,1008L1111,990L1030,945Z" fill="#393939" stroke="#393939" stroke-width="1.51"/><path d="M1175,1035L1111,990L1012,1008Z" fill="#333333" stroke="#333333" stroke-width="1.51"/><path d="M1461,597L1445,501L1368,510Z" fill="#4d4d4d" stroke="#4d4d4d" stroke-width="1.51"/><path d="M1368,510L1445,501L1368,402Z" fill="#565656" stroke="#565656" stroke-width="1.51"/><path d="M1292,729L1371,650L1278,644Z" fill="#494949" stroke="#494949" stroke-width="1.51"/><path d="M1376,763L1371,650L1292,729Z" fill="#414141" stroke="#414141" stroke-width="1.51"/><path d="M135,841L228,766L158,748Z" fill="#939393" stroke="#939393" stroke-width="1.51"/><path d="M135,841L234,920L257,854Z" fill="#828282" stroke="#828282" stroke-width="1.51"/><path d="M1212,947L1273,855L1182,850Z" fill="#373737" stroke="#373737" stroke-width="1.51"/><path d="M398,-114L331,-95L351,-32Z" fill="#e4e4e4" stroke="#e4e4e4" stroke-width="1.51"/><path d="M234,63L176,39L135,170Z" fill="#e3e3e3" stroke="#e3e3e3" stroke-width="1.51"/><path d="M331,-95L238,-16L351,-32Z" fill="#e5e5e5" stroke="#e5e5e5" stroke-width="1.51"/><path d="M1353,334L1366,210L1303,318Z" fill="#707070" stroke="#707070" stroke-width="1.51"/><path d="M1260,165L1295,54L1183,136Z" fill="#898989" stroke="#898989" stroke-width="1.51"/><path d="M1178,48L1215,-47L1096,-43Z" fill="#9d9d9d" stroke="#9d9d9d" stroke-width="1.51"/><path d="M1096,-43L1129,-122L1016,-128Z" fill="#a8a8a8" stroke="#a8a8a8" stroke-width="1.51"/><path d="M1444,306L1366,210L1353,334Z" fill="#6c6c6c" stroke="#6c6c6c" stroke-width="1.51"/><path d="M1444,306L1353,334L1368,402Z" fill="#646464" stroke="#646464" stroke-width="1.51"/><path d="M80,392L7,410L94,500Z" fill="#c5c5c5" stroke="#c5c5c5" stroke-width="1.51"/><path d="M61,249L174,306L161,243Z" fill="#d6d6d6" stroke="#d6d6d6" stroke-width="1.51"/><path d="M135,170L61,249L161,243Z" fill="#dbdbdb" stroke="#dbdbdb" stroke-width="1.51"/><path d="M238,-16L176,39L234,63Z" fill="#e6e6e6" stroke="#e6e6e6" stroke-width="1.51"/><path d="M83,583L70,672L158,648Z" fill="#aaaaaa" stroke="#aaaaaa" stroke-width="1.51"/><path d="M-32,646L70,672L83,583Z" fill="#adadad" stroke="#adadad" stroke-width="1.51"/><path d="M1111,990L1212,947L1117,902Z" fill="#373737" stroke="#373737" stroke-width="1.51"/><path d="M64,169L61,249L135,170Z" fill="#dfdfdf" stroke="#dfdfdf" stroke-width="1.51"/><path d="M1361,127L1295,54L1260,165Z" fill="#828282" stroke="#828282" stroke-width="1.51"/><path d="M1289,-22L1215,-47L1178,48Z" fill="#949494" stroke="#949494" stroke-width="1.51"/><path d="M1196,-99L1129,-122L1096,-43Z" fill="#a2a2a2" stroke="#a2a2a2" stroke-width="1.51"/><path d="M59,773L135,841L158,748Z" fill="#959595" stroke="#959595" stroke-width="1.51"/><path d="M1366,210L1361,127L1260,165Z" fill="#7c7c7c" stroke="#7c7c7c" stroke-width="1.51"/><path d="M1265,-126L1196,-99L1215,-47Z" fill="#989898" stroke="#989898" stroke-width="1.51"/><path d="M1461,597L1368,510L1345,579Z" fill="#4d4d4d" stroke="#4d4d4d" stroke-width="1.51"/><path d="M1368,818L1376,763L1292,729Z" fill="#3a3a3a" stroke="#3a3a3a" stroke-width="1.51"/><path d="M1368,818L1292,729L1273,855Z" fill="#393939" stroke="#393939" stroke-width="1.51"/><path d="M1461,597L1345,579L1371,650Z" fill="#484848" stroke="#484848" stroke-width="1.51"/><path d="M1443,149L1389,62L1361,127Z" fill="#787878" stroke="#787878" stroke-width="1.51"/><path d="M49,331L7,410L80,392Z" fill="#cccccc" stroke="#cccccc" stroke-width="1.51"/><path d="M4,323L7,410L49,331Z" fill="#d0d0d0" stroke="#d0d0d0" stroke-width="1.51"/><path d="M61,249L4,323L49,331Z" fill="#d7d7d7" stroke="#d7d7d7" stroke-width="1.51"/><path d="M57,61L64,169L135,170Z" fill="#e5e5e5" stroke="#e5e5e5" stroke-width="1.51"/><path d="M1215,-47L1196,-99L1096,-43Z" fill="#9e9e9e" stroke="#9e9e9e" stroke-width="1.51"/><path d="M1289,-22L1178,48L1295,54Z" fill="#8e8e8e" stroke="#8e8e8e" stroke-width="1.51"/><path d="M238,-16L149,-24L176,39Z" fill="#e9e9e9" stroke="#e9e9e9" stroke-width="1.51"/><path d="M176,39L57,61L135,170Z" fill="#e6e6e6" stroke="#e6e6e6" stroke-width="1.51"/><path d="M331,-95L262,-106L238,-16Z" fill="#e8e8e8" stroke="#e8e8e8" stroke-width="1.51"/><path d="M398,-114L262,-106L331,-95Z" fill="#e6e6e6" stroke="#e6e6e6" stroke-width="1.51"/><path d="M168,-120L262,-106L398,-114Z" fill="#eaeaea" stroke="#eaeaea" stroke-width="1.51"/><path d="M1445,501L1456,405L1368,402Z" fill="#575757" stroke="#575757" stroke-width="1.51"/><path d="M1212,947L1299,912L1273,855Z" fill="#303030" stroke="#303030" stroke-width="1.51"/><path d="M1297,991L1299,912L1212,947Z" fill="#2a2a2a" stroke="#2a2a2a" stroke-width="1.51"/><path d="M1111,990L1175,1035L1212,947Z" fill="#303030" stroke="#303030" stroke-width="1.51"/><path d="M947,1030L1175,1035L1012,1008Z" fill="#353535" stroke="#353535" stroke-width="1.51"/><path d="M1456,405L1444,306L1368,402Z" fill="#5f5f5f" stroke="#5f5f5f" stroke-width="1.51"/><path d="M-29,228L4,323L61,249Z" fill="#dbdbdb" stroke="#dbdbdb" stroke-width="1.51"/><path d="M234,920L227,998L328,939Z" fill="#747474" stroke="#747474" stroke-width="1.51"/><path d="M346,992L148,1029L433,1013Z" fill="#6a6a6a" stroke="#6a6a6a" stroke-width="1.51"/><path d="M155,936L227,998L234,920Z" fill="#777777" stroke="#777777" stroke-width="1.51"/><path d="M1368,907L1368,818L1273,855Z" fill="#2e2e2e" stroke="#2e2e2e" stroke-width="1.51"/><path d="M1376,763L1446,646L1371,650Z" fill="#3f3f3f" stroke="#3f3f3f" stroke-width="1.51"/><path d="M135,841L155,936L234,920Z" fill="#7f7f7f" stroke="#7f7f7f" stroke-width="1.51"/><path d="M70,672L59,773L158,748Z" fill="#9f9f9f" stroke="#9f9f9f" stroke-width="1.51"/><path d="M-24,741L59,773L70,672Z" fill="#a1a1a1" stroke="#a1a1a1" stroke-width="1.51"/><path d="M1357,-17L1289,-22L1295,54Z" fill="#898989" stroke="#898989" stroke-width="1.51"/><path d="M7,410L-12,505L94,500Z" fill="#c1c1c1" stroke="#c1c1c1" stroke-width="1.51"/><path d="M-34,578L-12,505L-106,497Z" fill="#bcbcbc" stroke="#bcbcbc" stroke-width="1.51"/><path d="M1458,772L1446,646L1376,763Z" fill="#393939" stroke="#393939" stroke-width="1.51"/><path d="M1445,501L1519,412L1456,405Z" fill="#535353" stroke="#535353" stroke-width="1.51"/><path d="M58,859L155,936L135,841Z" fill="#858585" stroke="#858585" stroke-width="1.51"/><path d="M1446,646L1461,597L1371,650Z" fill="#434343" stroke="#434343" stroke-width="1.51"/><path d="M168,-120L149,-24L238,-16Z" fill="#ececec" stroke="#ececec" stroke-width="1.51"/><path d="M-12,505L-34,578L83,583Z" fill="#b7b7b7" stroke="#b7b7b7" stroke-width="1.51"/><path d="M-91,584L-34,578L-106,497Z" fill="#bababa" stroke="#bababa" stroke-width="1.51"/><path d="M1443,149L1361,127L1366,210Z" fill="#757575" stroke="#757575" stroke-width="1.51"/><path d="M1361,127L1389,62L1295,54Z" fill="#808080" stroke="#808080" stroke-width="1.51"/><path d="M1444,306L1467,236L1366,210Z" fill="#6b6b6b" stroke="#6b6b6b" stroke-width="1.51"/><path d="M1534,219L1467,236L1555,297Z" fill="#636363" stroke="#636363" stroke-width="1.51"/><path d="M1519,412L1444,306L1456,405Z" fill="#5b5b5b" stroke="#5b5b5b" stroke-width="1.51"/><path d="M149,-24L57,61L176,39Z" fill="#ebebeb" stroke="#ebebeb" stroke-width="1.51"/><path d="M64,169L-29,228L61,249Z" fill="#dfdfdf" stroke="#dfdfdf" stroke-width="1.51"/><path d="M1467,236L1443,149L1366,210Z" fill="#707070" stroke="#707070" stroke-width="1.51"/><path d="M59,773L58,859L135,841Z" fill="#909090" stroke="#909090" stroke-width="1.51"/><path d="M155,936L148,1029L227,998Z" fill="#737373" stroke="#737373" stroke-width="1.51"/><path d="M-28,852L58,859L59,773Z" fill="#919191" stroke="#919191" stroke-width="1.51"/><path d="M-34,578L-32,646L83,583Z" fill="#b2b2b2" stroke="#b2b2b2" stroke-width="1.51"/><path d="M1368,818L1458,772L1376,763Z" fill="#333333" stroke="#333333" stroke-width="1.51"/><path d="M1299,912L1368,907L1273,855Z" fill="#2c2c2c" stroke="#2c2c2c" stroke-width="1.51"/><path d="M1175,1035L1297,991L1212,947Z" fill="#2a2a2a" stroke="#2a2a2a" stroke-width="1.51"/><path d="M1297,991L1368,907L1299,912Z" fill="#262626" stroke="#262626" stroke-width="1.51"/><path d="M1521,585L1445,501L1461,597Z" fill="#464646" stroke="#464646" stroke-width="1.51"/><path d="M1389,62L1357,-17L1295,54Z" fill="#838383" stroke="#838383" stroke-width="1.51"/><path d="M1289,-22L1265,-126L1215,-47Z" fill="#939393" stroke="#939393" stroke-width="1.51"/><path d="M1458,-49L1357,-17L1389,62Z" fill="#808080" stroke="#808080" stroke-width="1.51"/><path d="M-106,497L-12,505L7,410Z" fill="#c3c3c3" stroke="#c3c3c3" stroke-width="1.51"/><path d="M-14,146L-29,228L64,169Z" fill="#e3e3e3" stroke="#e3e3e3" stroke-width="1.51"/><path d="M1345,-118L1265,-126L1289,-22Z" fill="#8f8f8f" stroke="#8f8f8f" stroke-width="1.51"/><path d="M1196,-99L1265,-126L1129,-122Z" fill="#9d9d9d" stroke="#9d9d9d" stroke-width="1.51"/><path d="M1129,-122L1265,-126L1016,-128Z" fill="#a4a4a4" stroke="#a4a4a4" stroke-width="1.51"/><path d="M1016,-128L1265,-126L842,-135Z" fill="#acacac" stroke="#acacac" stroke-width="1.51"/><path d="M1534,511L1519,412L1445,501Z" fill="#4d4d4d" stroke="#4d4d4d" stroke-width="1.51"/><path d="M1536,168L1465,58L1443,149Z" fill="#707070" stroke="#707070" stroke-width="1.51"/><path d="M1521,585L1461,597L1446,646Z" fill="#414141" stroke="#414141" stroke-width="1.51"/><path d="M1476,848L1458,772L1368,818Z" fill="#2d2d2d" stroke="#2d2d2d" stroke-width="1.51"/><path d="M262,-106L168,-120L238,-16Z" fill="#ececec" stroke="#ececec" stroke-width="1.51"/><path d="M149,-24L83,-47L57,61Z" fill="#eeeeee" stroke="#eeeeee" stroke-width="1.51"/><path d="M510,-133L168,-120L398,-114Z" fill="#e6e6e6" stroke="#e6e6e6" stroke-width="1.51"/><path d="M-32,646L-24,741L70,672Z" fill="#a7a7a7" stroke="#a7a7a7" stroke-width="1.51"/><path d="M57,61L-14,146L64,169Z" fill="#e7e7e7" stroke="#e7e7e7" stroke-width="1.51"/><path d="M-22,58L-14,146L57,61Z" fill="#ebebeb" stroke="#ebebeb" stroke-width="1.51"/><path d="M1551,657L1521,585L1446,646Z" fill="#3d3d3d" stroke="#3d3d3d" stroke-width="1.51"/><path d="M1521,585L1534,511L1445,501Z" fill="#474747" stroke="#474747" stroke-width="1.51"/><path d="M227,998L148,1029L346,992Z" fill="#6e6e6e" stroke="#6e6e6e" stroke-width="1.51"/><path d="M433,1013L148,1029L947,1030Z" fill="#5d5d5d" stroke="#5d5d5d" stroke-width="1.51"/><path d="M947,1030L148,1029L1175,1035Z" fill="#494949" stroke="#494949" stroke-width="1.51"/><path d="M55,990L148,1029L155,936Z" fill="#777777" stroke="#777777" stroke-width="1.51"/><path d="M48,918L155,936L58,859Z" fill="#828282" stroke="#828282" stroke-width="1.51"/><path d="M168,-120L83,-47L149,-24Z" fill="#efefef" stroke="#efefef" stroke-width="1.51"/><path d="M-28,852L48,918L58,859Z" fill="#898989" stroke="#898989" stroke-width="1.51"/><path d="M-32,646L-91,646L-24,741Z" fill="#aaaaaa" stroke="#aaaaaa" stroke-width="1.51"/><path d="M-24,741L-28,852L59,773Z" fill="#999999" stroke="#999999" stroke-width="1.51"/><path d="M-34,578L-91,584L-32,646Z" fill="#b4b4b4" stroke="#b4b4b4" stroke-width="1.51"/><path d="M-106,497L7,410L-115,394Z" fill="#c9c9c9" stroke="#c9c9c9" stroke-width="1.51"/><path d="M-115,394L4,323L-120,318Z" fill="#d5d5d5" stroke="#d5d5d5" stroke-width="1.51"/><path d="M-115,394L7,410L4,323Z" fill="#cfcfcf" stroke="#cfcfcf" stroke-width="1.51"/><path d="M-106,497L-91,646L-91,584Z" fill="#b8b8b8" stroke="#b8b8b8" stroke-width="1.51"/><path d="M-91,584L-91,646L-32,646Z" fill="#b1b1b1" stroke="#b1b1b1" stroke-width="1.51"/><path d="M1443,149L1465,58L1389,62Z" fill="#777777" stroke="#777777" stroke-width="1.51"/><path d="M1357,-17L1345,-118L1289,-22Z" fill="#898989" stroke="#898989" stroke-width="1.51"/><path d="M1536,168L1443,149L1467,236Z" fill="#6c6c6c" stroke="#6c6c6c" stroke-width="1.51"/><path d="M1555,297L1444,306L1519,412Z" fill="#5c5c5c" stroke="#5c5c5c" stroke-width="1.51"/><path d="M1555,297L1467,236L1444,306Z" fill="#646464" stroke="#646464" stroke-width="1.51"/><path d="M-120,318L4,323L-29,228Z" fill="#dbdbdb" stroke="#dbdbdb" stroke-width="1.51"/><path d="M1534,511L1555,297L1519,412Z" fill="#525252" stroke="#525252" stroke-width="1.51"/><path d="M1435,-114L1345,-118L1357,-17Z" fill="#858585" stroke="#858585" stroke-width="1.51"/><path d="M1521,585L1551,657L1534,511Z" fill="#3f3f3f" stroke="#3f3f3f" stroke-width="1.51"/><path d="M1528,751L1551,657L1446,646Z" fill="#373737" stroke="#373737" stroke-width="1.51"/><path d="M1368,907L1476,848L1368,818Z" fill="#292929" stroke="#292929" stroke-width="1.51"/><path d="M1432,932L1476,848L1368,907Z" fill="#222222" stroke="#222222" stroke-width="1.51"/><path d="M-104,234L-120,318L-29,228Z" fill="#dfdfdf" stroke="#dfdfdf" stroke-width="1.51"/><path d="M-19,-10L-22,58L57,61Z" fill="#efefef" stroke="#efefef" stroke-width="1.51"/><path d="M1297,991L1384,991L1368,907Z" fill="#212121" stroke="#212121" stroke-width="1.51"/><path d="M1473,1020L1384,991L1297,991Z" fill="#1a1a1a" stroke="#1a1a1a" stroke-width="1.51"/><path d="M1528,751L1446,646L1458,772Z" fill="#353535" stroke="#353535" stroke-width="1.51"/><path d="M1534,511L1551,657L1555,297Z" fill="#484848" stroke="#484848" stroke-width="1.51"/><path d="M1384,991L1432,932L1368,907Z" fill="#1f1f1f" stroke="#1f1f1f" stroke-width="1.51"/><path d="M-94,847L-28,852L-24,741Z" fill="#969696" stroke="#969696" stroke-width="1.51"/><path d="M48,918L55,990L155,936Z" fill="#7c7c7c" stroke="#7c7c7c" stroke-width="1.51"/><path d="M1476,848L1528,751L1458,772Z" fill="#2d2d2d" stroke="#2d2d2d" stroke-width="1.51"/><path d="M1555,826L1528,751L1476,848Z" fill="#282828" stroke="#282828" stroke-width="1.51"/><path d="M-104,234L-29,228L-89,164Z" fill="#e4e4e4" stroke="#e4e4e4" stroke-width="1.51"/><path d="M-14,930L55,990L48,918Z" fill="#7f7f7f" stroke="#7f7f7f" stroke-width="1.51"/><path d="M-89,164L-29,228L-14,146Z" fill="#e5e5e5" stroke="#e5e5e5" stroke-width="1.51"/><path d="M1555,297L1536,168L1534,219Z" fill="#636363" stroke="#636363" stroke-width="1.51"/><path d="M1534,219L1536,168L1467,236Z" fill="#686868" stroke="#686868" stroke-width="1.51"/><path d="M-80,69L-89,164L-14,146Z" fill="#eaeaea" stroke="#eaeaea" stroke-width="1.51"/><path d="M-22,58L-80,69L-14,146Z" fill="#ededed" stroke="#ededed" stroke-width="1.51"/><path d="M83,-47L-19,-10L57,61Z" fill="#f0f0f0" stroke="#f0f0f0" stroke-width="1.51"/><path d="M168,-120L58,-104L83,-47Z" fill="#f3f3f3" stroke="#f3f3f3" stroke-width="1.51"/><path d="M-28,852L-14,930L48,918Z" fill="#868686" stroke="#868686" stroke-width="1.51"/><path d="M-91,646L-100,742L-24,741Z" fill="#a7a7a7" stroke="#a7a7a7" stroke-width="1.51"/><path d="M-106,497L-100,742L-91,646Z" fill="#b2b2b2" stroke="#b2b2b2" stroke-width="1.51"/><path d="M-115,394L-100,742L-106,497Z" fill="#bcbcbc" stroke="#bcbcbc" stroke-width="1.51"/><path d="M-102,933L-100,742L-114,1000Z" fill="#8a8a8a" stroke="#8a8a8a" stroke-width="1.51"/><path d="M-102,933L-14,930L-28,852Z" fill="#878787" stroke="#878787" stroke-width="1.51"/><path d="M-10,-104L-19,-10L83,-47Z" fill="#f4f4f4" stroke="#f4f4f4" stroke-width="1.51"/><path d="M1530,-38L1458,-49L1465,58Z" fill="#797979" stroke="#797979" stroke-width="1.51"/><path d="M1465,58L1458,-49L1389,62Z" fill="#7b7b7b" stroke="#7b7b7b" stroke-width="1.51"/><path d="M-19,-10L-80,69L-22,58Z" fill="#f0f0f0" stroke="#f0f0f0" stroke-width="1.51"/><path d="M-89,164L-117,-17L-104,234Z" fill="#ececec" stroke="#ececec" stroke-width="1.51"/><path d="M-104,234L-117,-17L-120,318Z" fill="#e8e8e8" stroke="#e8e8e8" stroke-width="1.51"/><path d="M1528,751L1555,826L1551,657Z" fill="#2f2f2f" stroke="#2f2f2f" stroke-width="1.51"/><path d="M1551,657L1555,826L1555,297Z" fill="#3d3d3d" stroke="#3d3d3d" stroke-width="1.51"/><path d="M1522,940L1555,826L1476,848Z" fill="#1f1f1f" stroke="#1f1f1f" stroke-width="1.51"/><path d="M1522,940L1476,848L1432,932Z" fill="#1d1d1d" stroke="#1d1d1d" stroke-width="1.51"/><path d="M-100,742L-94,847L-24,741Z" fill="#9d9d9d" stroke="#9d9d9d" stroke-width="1.51"/><path d="M1458,-49L1435,-114L1357,-17Z" fill="#818181" stroke="#818181" stroke-width="1.51"/><path d="M1345,-118L1435,-114L1265,-126Z" fill="#8a8a8a" stroke="#8a8a8a" stroke-width="1.51"/><path d="M1542,-116L1435,-114L1458,-49Z" fill="#7d7d7d" stroke="#7d7d7d" stroke-width="1.51"/><path d="M1536,168L1552,46L1465,58Z" fill="#707070" stroke="#707070" stroke-width="1.51"/><path d="M1555,297L1552,46L1536,168Z" fill="#686868" stroke="#686868" stroke-width="1.51"/><path d="M-19,-10L-117,-17L-80,69Z" fill="#f3f3f3" stroke="#f3f3f3" stroke-width="1.51"/><path d="M58,-104L-10,-104L83,-47Z" fill="#f5f5f5" stroke="#f5f5f5" stroke-width="1.51"/><path d="M-97,-132L-10,-104L58,-104Z" fill="#f8f8f8" stroke="#f8f8f8" stroke-width="1.51"/><path d="M1473,1020L1522,940L1432,932Z" fill="#181818" stroke="#181818" stroke-width="1.51"/><path d="M1384,991L1473,1020L1432,932Z" fill="#191919" stroke="#191919" stroke-width="1.51"/><path d="M1175,1035L1473,1020L1297,991Z" fill="#1f1f1f" stroke="#1f1f1f" stroke-width="1.51"/><path d="M1552,46L1530,-38L1465,58Z" fill="#747474" stroke="#747474" stroke-width="1.51"/><path d="M-102,933L-38,1015L-14,930Z" fill="#808080" stroke="#808080" stroke-width="1.51"/><path d="M-14,930L-38,1015L55,990Z" fill="#7c7c7c" stroke="#7c7c7c" stroke-width="1.51"/><path d="M55,990L-38,1015L148,1029Z" fill="#767676" stroke="#767676" stroke-width="1.51"/><path d="M-94,847L-102,933L-28,852Z" fill="#8c8c8c" stroke="#8c8c8c" stroke-width="1.51"/><path d="M-100,742L-102,933L-94,847Z" fill="#939393" stroke="#939393" stroke-width="1.51"/><path d="M-114,1000L-100,742L-115,394Z" fill="#a8a8a8" stroke="#a8a8a8" stroke-width="1.51"/><path d="M-10,-104L-117,-17L-19,-10Z" fill="#f6f6f6" stroke="#f6f6f6" stroke-width="1.51"/><path d="M-80,69L-117,-17L-89,164Z" fill="#f0f0f0" stroke="#f0f0f0" stroke-width="1.51"/><path d="M1175,1035L1539,1021L1473,1020Z" fill="#171717" stroke="#171717" stroke-width="1.51"/><path d="M1473,1020L1539,1021L1522,940Z" fill="#121212" stroke="#121212" stroke-width="1.51"/><path d="M1522,940L1539,1021L1555,826Z" fill="#171717" stroke="#171717" stroke-width="1.51"/><path d="M1530,-38L1542,-116L1458,-49Z" fill="#797979" stroke="#797979" stroke-width="1.51"/><path d="M1435,-114L1542,-116L1265,-126Z" fill="#848484" stroke="#848484" stroke-width="1.51"/><path d="M1552,46L1542,-116L1530,-38Z" fill="#757575" stroke="#757575" stroke-width="1.51"/><path d="M-102,933L-114,1000L-38,1015Z" fill="#7e7e7e" stroke="#7e7e7e" stroke-width="1.51"/><path d="M-120,318L-114,1000L-115,394Z" fill="#b9b9b9" stroke="#b9b9b9" stroke-width="1.51"/><path d="M-10,-104L-97,-132L-117,-17Z" fill="#f9f9f9" stroke="#f9f9f9" stroke-width="1.51"/><path d="M168,-120L-97,-132L58,-104Z" fill="#f6f6f6" stroke="#f6f6f6" stroke-width="1.51"/><path d="M510,-133L-97,-132L168,-120Z" fill="#efefef" stroke="#efefef" stroke-width="1.51"/><path d="M842,-135L-97,-132L510,-133Z" fill="#e2e2e2" stroke="#e2e2e2" stroke-width="1.51"/></svg>